<?xml version="1.0" standalone="no"?>
<!DOCTYPE svg PUBLIC "-//W3C//DTD SVG 20010904//EN"
 "http://www.w3.org/TR/2001/REC-SVG-20010904/DTD/svg10.dtd">
<svg version="1.0" xmlns="http://www.w3.org/2000/svg"
 width="1024.000000pt" height="1024.000000pt" viewBox="0 0 1024.000000 1024.000000"
 preserveAspectRatio="xMidYMid meet">

<g transform="translate(0.000000,1024.000000) scale(0.100000,-0.100000)"
fill="#000000" stroke="none">
<path d="M655 9580 l-650 -650 1908 -1908 c1049 -1049 1907 -1911 1907 -1916
0 -5 -856 -863 -1902 -1906 l-1903 -1897 639 -646 639 -646 1056 1049 c581
577 1438 1432 1906 1899 467 468 854 851 860 851 5 0 866 -856 1912 -1902
l1903 -1903 652 653 653 652 -1905 1906 -1905 1906 1908 1902 c1049 1047 1907
1906 1907 1910 0 12 -1261 1286 -1272 1286 -5 0 -870 -857 -1921 -1905 l-1912
-1905 -1910 1910 c-1051 1050 -1912 1910 -1915 1910 -3 0 -298 -293 -655 -650z"/>
</g>
</svg>
